<svg id="katman_1" data-name="katman 1" xmlns="http://www.w3.org/2000/svg" viewBox="0 0 60 80"><defs><style>.cls-1{fill:#fff;}</style></defs><path class="cls-1" d="M25.78,40.57a1.9,1.9,0,0,1-1.87-1.91h0v-.17a1.93,1.93,0,0,1,.8-1.32h0a5.28,5.28,0,0,0,1.83-2.81,1.91,1.91,0,0,1,1.7-1.54h.29a1.9,1.9,0,0,1,1.35.65,1.81,1.81,0,0,1,.44,1.37,8.58,8.58,0,0,1-2.88,5.06,2.82,2.82,0,0,1-1.44.67Zm2.67-6.36h-.06a.51.51,0,0,0-.44.41,6.63,6.63,0,0,1-2.45,3.73.5.5,0,0,0-.2.33.39.39,0,0,0,.13.35.44.44,0,0,0,.42.15h0a1.46,1.46,0,0,0,.68-.34,7.34,7.34,0,0,0,2.4-4.12.42.42,0,0,0-.11-.32.51.51,0,0,0-.34-.17Z"/><path class="cls-1" d="M25.75,47.09a8.45,8.45,0,0,1-8.27-7,.7.7,0,1,1,1.37-.32v.09a7,7,0,0,0,7.68,5.82A8,8,0,0,0,30.7,43.8a13.82,13.82,0,0,0,4.68-8.51,6.9,6.9,0,0,0-1.69-5.18,7,7,0,0,0-5-2.4,6.49,6.49,0,0,0-1.08,0,7.08,7.08,0,0,0-5.92,4.89,2,2,0,0,1-.58.91,7.18,7.18,0,0,0-2,3,.7.7,0,1,1-1.34-.42l0-.09a8.7,8.7,0,0,1,2.42-3.61.7.7,0,0,0,.19-.29,8.47,8.47,0,0,1,7.08-5.78,7.06,7.06,0,0,1,1.3,0,8.44,8.44,0,0,1,6,2.87,8.33,8.33,0,0,1,2,6.25,15.23,15.23,0,0,1-5.16,9.37A9.47,9.47,0,0,1,26.72,47,5.23,5.23,0,0,1,25.75,47.09Z"/><path class="cls-1" d="M25.76,43.82a5.15,5.15,0,0,1-5.12-5.17,4.86,4.86,0,0,1,0-.54,5.2,5.2,0,0,1,2.16-3.6l.1-.06a3.24,3.24,0,0,0,.45-.76h0a5.22,5.22,0,0,1,4.49-4,3.57,3.57,0,0,1,.8,0,5.18,5.18,0,0,1,3.67,1.75,5.11,5.11,0,0,1,1.23,3.72,11.75,11.75,0,0,1-4,7.25,6.08,6.08,0,0,1-3.18,1.4C26.16,43.82,26,43.83,25.76,43.82ZM28.45,31H28a3.76,3.76,0,0,0-3.24,3h0a3.78,3.78,0,0,1-.88,1.59l-.21.16a3.8,3.8,0,0,0-1.58,2.62,3.75,3.75,0,0,0,4.14,4.12h0a4.6,4.6,0,0,0,2.43-1.08A10.24,10.24,0,0,0,32.23,35a3.72,3.72,0,0,0-.9-2.76A3.84,3.84,0,0,0,28.66,31Z"/><path class="cls-1" d="M25.14,53.64a12.77,12.77,0,0,1-4.33-.75.7.7,0,0,1,.33-1.36h.14a11.33,11.33,0,0,0,5,.6h.15A17,17,0,0,0,34.72,49c.23-.16.45-.34.66-.51a2,2,0,0,1,2.52,0,13,13,0,0,0,4.33,2.16.71.71,0,0,1,.46.88.68.68,0,0,1-.84.47h0a14.53,14.53,0,0,1-4.76-2.44.62.62,0,0,0-.77,0c-.22.2-.47.38-.71.56a18.41,18.41,0,0,1-8.89,3.42h-.11A10.37,10.37,0,0,1,25.14,53.64Z"/><path class="cls-1" d="M25.15,50.38a10.21,10.21,0,0,1-6.37-2.3.7.7,0,0,1,.87-1.1A8.73,8.73,0,0,0,26,49a13.88,13.88,0,0,0,6.77-2.57,12.8,12.8,0,0,0,2.89-2.94,1.35,1.35,0,0,1,1.23-.59,1.41,1.41,0,0,1,1.08.66,11.87,11.87,0,0,0,1.56,2.16,7.89,7.89,0,0,0,3.7,2.1.69.69,0,0,1,.59.77v0a.7.7,0,0,1-.79.59h-.12a9.32,9.32,0,0,1-4.33-2.49,12.39,12.39,0,0,1-1.75-2.32,14.17,14.17,0,0,1-3.18,3.24,15.35,15.35,0,0,1-7.44,2.82A4,4,0,0,0,25.15,50.38Z"/><path class="cls-1" d="M27.65,56.88h-.19a.71.71,0,0,1-.7-.71.7.7,0,0,1,.7-.7h.21a35.62,35.62,0,0,0,4-.23,45.9,45.9,0,0,0,4.94-.84.73.73,0,0,1,.84.54.71.71,0,0,1-.54.84,48.49,48.49,0,0,1-5.08.85A38.91,38.91,0,0,1,27.65,56.88Z"/><path class="cls-1" d="M43.43,44.72h-.06a5.11,5.11,0,0,1-2.92-2.26,8.63,8.63,0,0,1-1.56-5.41,13.31,13.31,0,0,0-3.08-9.58,10.36,10.36,0,0,0-7.43-3.25,11,11,0,0,0-4.07.56.71.71,0,0,1-.91-.4h0V24.3a.71.71,0,0,1,.45-.89,12.65,12.65,0,0,1,4.57-.64,11.78,11.78,0,0,1,8.4,3.71,14.59,14.59,0,0,1,3.49,10.64,7.3,7.3,0,0,0,1.32,4.5,4,4,0,0,0,1.91,1.67.71.71,0,0,1,.54.85.69.69,0,0,1-.62.55Z"/><path class="cls-1" d="M43.49,40.1a.64.64,0,0,1-.36-.11,3,3,0,0,1-1.08-2.63c0-1.08-.17-3.7-.17-3.72a.71.71,0,0,1,.57-.82.7.7,0,0,1,.81.57h0a.29.29,0,0,1,0,.13c0,.12.23,2.77.19,3.89a1.83,1.83,0,0,0,.43,1.4.69.69,0,0,1,.25.94h0A.7.7,0,0,1,43.49,40.1Z"/><path class="cls-1" d="M9.3,31.87a1,1,0,0,1,.07-.38,22.41,22.41,0,1,1,31,28.61,1,1,0,0,1-.9-1.71,20.48,20.48,0,1,0-28.35-26.2,1,1,0,0,1-1.85-.32Z"/><path class="cls-1" d="M1.21,40.15A28.79,28.79,0,0,1,20.92,12.86a1,1,0,1,1,.61,1.83A26.88,26.88,0,0,0,10.22,58.36a1,1,0,0,1-.06,1.36h0a1,1,0,0,1-1.34,0h0A28.72,28.72,0,0,1,1.21,40.15Z"/><path class="cls-1" d="M7.59,40.16a1,1,0,0,1,1-1h0a1,1,0,0,1,1,1h0A20.52,20.52,0,0,0,30,60.7a1,1,0,0,1,0,1.92A22.44,22.44,0,0,1,7.59,40.16Z"/><path class="cls-1" d="M14.89,64.16a.78.78,0,0,1,.14-.49,1,1,0,0,1,1.31-.35h0a26.86,26.86,0,0,0,36.79-9.46v0A27.18,27.18,0,0,0,55,50a1,1,0,0,1,1.4-.18,1,1,0,0,1,.39.87A28.83,28.83,0,0,1,19.49,67a29.67,29.67,0,0,1-4.13-2A1,1,0,0,1,14.89,64.16Z"/><path class="cls-1" d="M29.08,12.41a1,1,0,0,1,1-1A28.81,28.81,0,0,1,58.79,40.23a1,1,0,0,1-1.93,0A26.87,26.87,0,0,0,30,13.33h0A1,1,0,0,1,29.08,12.41Z"/><path class="cls-1" d="M47.7,6.41a.79.79,0,0,0-.56-.94A73.17,73.17,0,0,0,32.29,3.12h-.87L32,9.36h.66c2.06.12,4.12.34,6.16.66a2.21,2.21,0,0,0,.62.86,2.3,2.3,0,1,0-.29-3.24,2.37,2.37,0,0,0-.44.83C37,8.2,35.2,8,33.41,7.87l-.27-3.16A71.5,71.5,0,0,1,46.77,7a.75.75,0,0,0,.92-.55A.06.06,0,0,1,47.7,6.41Z"/><path class="cls-1" d="M13.93,10.15a1,1,0,1,0,.58,1.91.52.52,0,0,0,.16-.06c2.66-1.08,5.41-2,8.11-2.82a3.06,3.06,0,0,0,1.08.94,3,3,0,1,0-1.3-4l0,0a3.24,3.24,0,0,0-.32,1.18A78.79,78.79,0,0,0,13.93,10.15Z"/><path class="cls-1" d="M29.14,71.47a2.71,2.71,0,1,0,2.65,2.9,66.91,66.91,0,0,0,15.7-3.93A.77.77,0,0,0,47.06,69l-.12,0A65.94,65.94,0,0,1,31.48,72.9,2.68,2.68,0,0,0,29.14,71.47Zm0,3.85a1.16,1.16,0,1,1,1.15-1.17v0h0a1.14,1.14,0,0,1-1.16,1.14h0Z"/></svg>