<svg id="katman_1" data-name="katman 1" xmlns="http://www.w3.org/2000/svg" viewBox="0 0 220 60"><defs><style>.cls-1{fill:#fff;}</style></defs><g id="Layer_1" data-name="Layer 1"><path class="cls-1" d="M59.9,15.14l11.36,30.1H69.12c-.7-1.85-2.15-5.66-4.32-11.43H52.56L48.28,45.12h-.59q.5-1.24,5.26-13.75t6.14-16.23ZM52.74,33.3H64.53L58.82,18.22l-.13-.3v-.08a.14.14,0,0,0,0-.09Z"/><path class="cls-1" d="M76.22,44.71H89.11v.52H74.22V15.14h2Z"/><path class="cls-1" d="M113.26,15.14h.53q-2.78,8-10.28,30.1h-1.22L92.05,15.14h2.16q1.44,4.21,4.31,12.7t4.3,12.74l.84,2.27v.09l.08.17Z"/><path class="cls-1" d="M128.93,15.14l11.38,30.1h-2.16c-.7-1.85-2.15-5.66-4.32-11.43H121.58l-4.27,11.31h-.58L122,31.37q4.75-12.47,6.14-16.23ZM121.78,33.3h11.84L127.9,18.22l-.12-.3v-.08a.12.12,0,0,0-.1-.07Z"/><path class="cls-1" d="M171.89,27.69a1.21,1.21,0,0,1-.16,1.24.88.88,0,0,1-1,.3,1.17,1.17,0,0,1-.79-.9A3.35,3.35,0,0,0,169.1,27a2.49,2.49,0,0,0-1.85-.67,2.63,2.63,0,0,0-1.78.84h-.13a6.68,6.68,0,0,1,2.77,5.69,7.68,7.68,0,0,1-.39,2.52,5.6,5.6,0,0,1-1.06,1.87,6.73,6.73,0,0,1-1.59,1.27,7.85,7.85,0,0,1-1.94.74,9.09,9.09,0,0,1-2.08.24h-.7a7.9,7.9,0,0,1-4.52-1.33,6.2,6.2,0,0,0-1,1.11,2.39,2.39,0,0,0-.47,1.11,1.07,1.07,0,0,0,.51,1,4.3,4.3,0,0,0,1.89.67c2.1.14,3.79.23,5.06.25,2.85,0,4.82,1,5.89,3a4.92,4.92,0,0,1,0,5,6.57,6.57,0,0,1-5.42,3.47,11,11,0,0,1-4.63-.43,7.42,7.42,0,0,1-2.81-1.69,4.75,4.75,0,0,1-1.47-2.73,5.84,5.84,0,0,1-.07-2,6.27,6.27,0,0,1,.48-1.69,1.21,1.21,0,0,1,1.06-.64.94.94,0,0,1,.9.52,1.44,1.44,0,0,1-.17,1.29,4,4,0,0,0-.57,2.73,4.87,4.87,0,0,0,2.16,3.22,6.55,6.55,0,0,0,3.92,1.24,5.43,5.43,0,0,0,4.45-2.23,4.36,4.36,0,0,0,.84-4.45q-.84-2.28-4.44-2.44H159.3a19.28,19.28,0,0,1-2.15,0,3.29,3.29,0,0,1-2.67-1.16,3.1,3.1,0,0,1-.57-2.63,4.56,4.56,0,0,1,1.68-2.7,6,6,0,0,1-2.25-5.1,7.68,7.68,0,0,1,.66-3.2,5.6,5.6,0,0,1,1.74-2.23A8.56,8.56,0,0,1,158,26.19a7.79,7.79,0,0,1,2.57-.43h.29A7.59,7.59,0,0,1,165.2,27a5.7,5.7,0,0,1,2.32-1.09,4.63,4.63,0,0,1,2.53.11A2.91,2.91,0,0,1,171.89,27.69ZM160.67,39.33a6.39,6.39,0,0,0,2.71-.68,4.48,4.48,0,0,0,1.9-2A7.65,7.65,0,0,0,166,33a10.29,10.29,0,0,0-.66-3.88,4.85,4.85,0,0,0-4.69-3.27,4.68,4.68,0,0,0-3.87,1.91A8.39,8.39,0,0,0,155.36,33a6.55,6.55,0,0,0,1.48,4.67A5.24,5.24,0,0,0,160.67,39.33Z"/><path class="cls-1" d="M184,26.87a1.16,1.16,0,0,1-.12,1.25.91.91,0,0,1-1,.29,1.17,1.17,0,0,1-.85-.94,3.81,3.81,0,0,0-.77-1.28,2.35,2.35,0,0,0-2.53-.54,2.56,2.56,0,0,0-1.75,2,3.47,3.47,0,0,1-.08.55v17h-2v-19h2v.43a6.09,6.09,0,0,1,2.52-1.37,4.8,4.8,0,0,1,2.76,0A2.78,2.78,0,0,1,184,26.87Z"/><path class="cls-1" d="M199.3,26h2V45.24h-2V41.09a10.45,10.45,0,0,1-3,2.85,7.91,7.91,0,0,1-3.37,1.3A4.74,4.74,0,0,1,188.3,43a6.34,6.34,0,0,1-.84-1.76,8.78,8.78,0,0,1-.34-1.68c0-.48-.06-1.11-.06-1.91V26h2V37.71a8.89,8.89,0,0,0,1.11,5,3.54,3.54,0,0,0,2.61,1.68,5.39,5.39,0,0,0,3.41-.84,9.74,9.74,0,0,0,3.11-3.18Z"/><path class="cls-1" d="M206.28,27.69a7.85,7.85,0,0,1,2.45-1.39,9.29,9.29,0,0,1,2.86-.54,7.2,7.2,0,0,1,7.2,5,11.82,11.82,0,0,1,.66,4.33,13.84,13.84,0,0,1-.7,4.56,8,8,0,0,1-1.83,3.1,8.3,8.3,0,0,1-2.52,1.74,7.54,7.54,0,0,1-2.88.64,8.66,8.66,0,0,1-2.81-.41,7.87,7.87,0,0,1-2.43-1.24V53.81h-2V26.19h2Zm0,12.12A5.09,5.09,0,0,0,208.65,44a4.64,4.64,0,0,0,4.77.47c2.25-1,3.55-3.49,3.92-7.45a20.87,20.87,0,0,0,.12-2.24q0-6.08-3.26-8.13a4.59,4.59,0,0,0-4.9-.17,5.34,5.34,0,0,0-2.9,4.11c-.05.31-.09.62-.12.94v8.28Z"/><path class="cls-1" d="M19.67,30.44A1.47,1.47,0,0,1,18.21,29a.29.29,0,0,1,0-.13,1.47,1.47,0,0,1,.62-1h0a4.12,4.12,0,0,0,1.42-2.19,1.51,1.51,0,0,1,1.32-1.21h.23a1.49,1.49,0,0,1,1.05.51,1.42,1.42,0,0,1,.36,1A6.77,6.77,0,0,1,21,29.92a2.11,2.11,0,0,1-1.12.52Zm2.11-5H21.7a.39.39,0,0,0-.34.32,5.19,5.19,0,0,1-1.91,2.91.42.42,0,0,0-.16.25.33.33,0,0,0,.11.28.35.35,0,0,0,.32.11h0a1.08,1.08,0,0,0,.53-.27,5.56,5.56,0,0,0,1.87-3.2.35.35,0,0,0-.08-.26.4.4,0,0,0-.27-.12Z"/><path class="cls-1" d="M19.65,35.52A6.56,6.56,0,0,1,13.21,30a.55.55,0,0,1,.4-.66.56.56,0,0,1,.66.41v.07A5.51,5.51,0,0,0,15.6,32.6a5.4,5.4,0,0,0,4.69,1.79,6.2,6.2,0,0,0,3.24-1.46,10.8,10.8,0,0,0,3.65-6.63,5.33,5.33,0,0,0-1.32-4A5.41,5.41,0,0,0,22,20.4a5.89,5.89,0,0,0-.84,0,5.5,5.5,0,0,0-4.61,3.8,1.57,1.57,0,0,1-.45.71,5.81,5.81,0,0,0-1.59,2.35.53.53,0,0,1-.68.34h0a.56.56,0,0,1-.34-.69,6.7,6.7,0,0,1,1.89-2.82.66.66,0,0,0,.15-.22A6.57,6.57,0,0,1,21,19.37a5.57,5.57,0,0,1,1,0,6.58,6.58,0,0,1,4.66,2.23,6.47,6.47,0,0,1,1.57,4.87,11.82,11.82,0,0,1-4,7.3,7.38,7.38,0,0,1-3.83,1.68A3.81,3.81,0,0,1,19.65,35.52Z"/><path class="cls-1" d="M19.66,33a4,4,0,0,1-4-4,2.94,2.94,0,0,1,0-.42,4,4,0,0,1,1.68-2.8l.08-.05a2.7,2.7,0,0,0,.35-.59h0A4,4,0,0,1,21.27,22a3.21,3.21,0,0,1,.62,0,4.07,4.07,0,0,1,2.86,1.36,4,4,0,0,1,1,2.9,9.18,9.18,0,0,1-3.14,5.65A4.66,4.66,0,0,1,20.14,33Zm2.09-10h-.33a3,3,0,0,0-2.52,2.3h0a3,3,0,0,1-.68,1.23l-.17.13a3,3,0,0,0-1.23,2,2.92,2.92,0,0,0,2.58,3.21,3.42,3.42,0,0,0,.64,0h0a3.66,3.66,0,0,0,1.9-.85,8,8,0,0,0,2.75-4.91A2.85,2.85,0,0,0,24,24a2.93,2.93,0,0,0-2.08-1Z"/><path class="cls-1" d="M19.17,40.62A10,10,0,0,1,15.8,40a.56.56,0,0,1-.14-.77.57.57,0,0,1,.4-.23h.1a8.9,8.9,0,0,0,3.93.47h.11A13.21,13.21,0,0,0,26.64,37l.51-.4a1.59,1.59,0,0,1,2,0,10.18,10.18,0,0,0,3.37,1.69.53.53,0,0,1,.36.67h0a.53.53,0,0,1-.65.37h0a11.36,11.36,0,0,1-3.71-1.9.47.47,0,0,0-.59,0l-.56.44a14.5,14.5,0,0,1-6.92,2.66H20.3A8.47,8.47,0,0,1,19.17,40.62Z"/><path class="cls-1" d="M19.18,38.09a8,8,0,0,1-5-1.8.54.54,0,0,1-.1-.76h0a.56.56,0,0,1,.78-.09,6.77,6.77,0,0,0,5,1.56,10.84,10.84,0,0,0,5.27-2,10.23,10.23,0,0,0,2.26-2.29,1,1,0,0,1,.95-.46,1.09,1.09,0,0,1,.84.51,9.19,9.19,0,0,0,1.22,1.69,6.11,6.11,0,0,0,2.88,1.63.56.56,0,0,1,.54.56.55.55,0,0,1-.57.54l-.13,0H33a7.08,7.08,0,0,1-3.37-1.94,9.22,9.22,0,0,1-1.36-1.81,10.83,10.83,0,0,1-2.48,2.53,12,12,0,0,1-5.8,2.2A3.34,3.34,0,0,0,19.18,38.09Z"/><path class="cls-1" d="M21.13,43.15H21a.55.55,0,0,1-.55-.55.55.55,0,0,1,.55-.55h.16a27.72,27.72,0,0,0,3.15-.18,36,36,0,0,0,3.85-.65.55.55,0,0,1,.34,1.05l-.11,0a38.77,38.77,0,0,1-4,.66A29.56,29.56,0,0,1,21.13,43.15Z"/><path class="cls-1" d="M33.41,33.68h0a4,4,0,0,1-2.27-1.76,6.67,6.67,0,0,1-1.22-4.21,10.35,10.35,0,0,0-2.4-7.47,8,8,0,0,0-5.79-2.53,8.7,8.7,0,0,0-3.16.44.56.56,0,0,1-.72-.33h0v-.05a.54.54,0,0,1,.33-.69h0a10,10,0,0,1,3.56-.5,9.17,9.17,0,0,1,6.54,2.89A11.3,11.3,0,0,1,31,27.76a5.68,5.68,0,0,0,1,3.5,3.1,3.1,0,0,0,1.49,1.3.56.56,0,0,1,.45.64.55.55,0,0,1-.52.45Z"/><path class="cls-1" d="M33.47,30.08a.54.54,0,0,1-.28-.08,2.33,2.33,0,0,1-.84-2.06c0-.84-.14-2.88-.14-2.9a.55.55,0,0,1,1.08-.19V25s.17,2.16.14,3A1.45,1.45,0,0,0,33.77,29a.55.55,0,0,1,.19.74h0A.53.53,0,0,1,33.47,30.08Z"/><path class="cls-1" d="M6.83,23.66a.72.72,0,0,1,.06-.29A17.45,17.45,0,1,1,31.06,45.66a.74.74,0,0,1-.68-1.32A16,16,0,1,0,8.27,23.92a.75.75,0,0,1-1,.41h0A.78.78,0,0,1,6.83,23.66Z"/><path class="cls-1" d="M.53,30.11A22.41,22.41,0,0,1,15.88,8.86a.75.75,0,0,1,.48,1.42,20.93,20.93,0,0,0-8.81,34,.75.75,0,0,1,0,1.06h0a.76.76,0,0,1-1,0h0A22.36,22.36,0,0,1,.53,30.11Z"/><path class="cls-1" d="M5.5,30.12a.77.77,0,0,1,.75-.75h0a.74.74,0,0,1,.74.74H7a16,16,0,0,0,15.93,16,.75.75,0,0,1,0,1.5A17.48,17.48,0,0,1,5.5,30.12Z"/><path class="cls-1" d="M11.19,48.82a.64.64,0,0,1,.1-.38.76.76,0,0,1,1-.27h0A21,21,0,0,0,41,40.82l0,0a20.83,20.83,0,0,0,1.47-3,.75.75,0,1,1,1.4.54,22.4,22.4,0,0,1-32.3,11.16A.75.75,0,0,1,11.19,48.82Z"/><path class="cls-1" d="M22.24,8.51A.76.76,0,0,1,23,7.76h0A22.44,22.44,0,0,1,45.38,30.18a.75.75,0,0,1-1.5,0A21,21,0,0,0,23,9.22.75.75,0,0,1,22.24,8.51Z"/><path class="cls-1" d="M36.74,3.83a.61.61,0,0,0-.43-.73A57.28,57.28,0,0,0,24.74,1.27h-.68l.41,4.86H25c1.6.1,3.21.27,4.8.52a1.69,1.69,0,0,0,.48.67,1.79,1.79,0,1,0-.23-2.52,2,2,0,0,0-.34.64A39.53,39.53,0,0,0,25.58,5l-.21-2.46A55.52,55.52,0,0,1,36,4.3a.59.59,0,0,0,.71-.42h0Z"/><path class="cls-1" d="M10.44,6.75a.78.78,0,1,0,.36,1.52.7.7,0,0,0,.2-.08c2.07-.84,4.21-1.57,6.31-2.2a2.33,2.33,0,0,0,3.23.6,2.39,2.39,0,0,0,.77-.9,2.33,2.33,0,1,0-4.16-2.11,2.49,2.49,0,0,0-.26.92C14.72,5.14,12.56,5.89,10.44,6.75Z"/><path class="cls-1" d="M22.28,54.52a2.11,2.11,0,1,0,2.07,2.25,52.08,52.08,0,0,0,12.23-3.06A.6.6,0,0,0,37,53a.61.61,0,0,0-.75-.41h-.09a51.1,51.1,0,0,1-12,3A2,2,0,0,0,22.28,54.52Zm0,3a.9.9,0,1,1,.9-.9h0a.89.89,0,0,1-.89.89h0Z"/></g></svg>