<svg xmlns="http://www.w3.org/2000/svg" viewBox="0 0 50 50"><defs><style>.cls-1{isolation:isolate;}.cls-2{fill:#2b363a;}.cls-3{mix-blend-mode:overlay;}</style></defs><g class="cls-1"><g id="Layer_1" data-name="Layer 1"><path class="cls-2" d="M22.31,25.38a1.18,1.18,0,0,1-.89-.4,1.14,1.14,0,0,1-.3-.92,1.21,1.21,0,0,1,.5-.84l0,0a3.27,3.27,0,0,0,1.16-1.79,1.24,1.24,0,0,1,1.07-1,1.2,1.2,0,0,1,.19,0,1.2,1.2,0,0,1,1.14,1.28A5.56,5.56,0,0,1,23.37,25a1.92,1.92,0,0,1-.92.42h-.14Zm.09-.45h0ZM24,21.33h0a.33.33,0,0,0-.28.26A4.2,4.2,0,0,1,22.14,24a.34.34,0,0,0-.14.21.29.29,0,0,0,.09.23.28.28,0,0,0,.26.09h0a.83.83,0,0,0,.44-.21,4.68,4.68,0,0,0,1.53-2.63.27.27,0,0,0-.07-.2.28.28,0,0,0-.22-.11Z"/><path class="cls-2" d="M22.29,29.53A5.38,5.38,0,0,1,17,25.05a.45.45,0,0,1,.37-.52.46.46,0,0,1,.51.37,4.47,4.47,0,0,0,4.9,3.71,5.12,5.12,0,0,0,2.66-1.18,8.73,8.73,0,0,0,3-5.42,4.38,4.38,0,0,0-1.07-3.3,4.49,4.49,0,0,0-3.18-1.52,3.87,3.87,0,0,0-.68,0,4.51,4.51,0,0,0-3.77,3.06,1.35,1.35,0,0,1-.37.59,4.48,4.48,0,0,0-1.29,1.92.45.45,0,0,1-.85-.29,5.56,5.56,0,0,1,1.54-2.3.5.5,0,0,0,.13-.19,5.38,5.38,0,0,1,4.51-3.68,5.62,5.62,0,0,1,.82,0,5.42,5.42,0,0,1,3.81,1.83,5.31,5.31,0,0,1,1.29,4,9.72,9.72,0,0,1-3.3,6,5.9,5.9,0,0,1-3.13,1.37A4.21,4.21,0,0,1,22.29,29.53Z"/><path class="cls-2" d="M22.3,27.45a3.27,3.27,0,0,1-3.24-3.64,3.37,3.37,0,0,1,1.37-2.29l.06,0a1.66,1.66,0,0,0,.29-.48v0a3.31,3.31,0,0,1,2.86-2.59,2.77,2.77,0,0,1,.5,0,3.32,3.32,0,0,1,2.34,1.11,3.26,3.26,0,0,1,.78,2.43,7.51,7.51,0,0,1-2.56,4.62,3.88,3.88,0,0,1-2,.9A2.36,2.36,0,0,1,22.3,27.45ZM24,19.26h-.26a2.41,2.41,0,0,0-2.09,1.88v0a2.49,2.49,0,0,1-.57,1l-.14.1a2.45,2.45,0,0,0-1,1.67,2.32,2.32,0,0,0,.59,1.84,2.34,2.34,0,0,0,2,.78h0a3,3,0,0,0,1.55-.69,6.54,6.54,0,0,0,2.25-4,2.31,2.31,0,0,0-.57-1.76,2.42,2.42,0,0,0-1.7-.81Z"/><path class="cls-2" d="M21.9,33.7a8.28,8.28,0,0,1-2.75-.47.45.45,0,0,1-.27-.57.43.43,0,0,1,.57-.27,7.49,7.49,0,0,0,3.22.38h.09a11,11,0,0,0,5.23-2l.42-.33a1.29,1.29,0,0,1,1.6,0,8.59,8.59,0,0,0,2.74,1.41.45.45,0,0,1,.3.56.45.45,0,0,1-.56.29,9.48,9.48,0,0,1-3-1.56.39.39,0,0,0-.49,0l-.45.35a11.83,11.83,0,0,1-5.66,2.18h-.07A6.73,6.73,0,0,1,21.9,33.7Z"/><path class="cls-2" d="M21.91,31.63a6.5,6.5,0,0,1-4.06-1.47.46.46,0,0,1-.07-.63.45.45,0,0,1,.63-.07,5.49,5.49,0,0,0,4,1.25,8.81,8.81,0,0,0,4.31-1.63,8.46,8.46,0,0,0,1.85-1.88.88.88,0,0,1,.75-.37.86.86,0,0,1,.71.43,7.33,7.33,0,0,0,1,1.34,4.84,4.84,0,0,0,2.35,1.33.45.45,0,1,1-.21.87,5.81,5.81,0,0,1-2.79-1.58,8,8,0,0,1-1.11-1.48,9.23,9.23,0,0,1-2,2.06,9.79,9.79,0,0,1-4.74,1.8Z"/><path class="cls-2" d="M23.51,35.77h-.13a.44.44,0,0,1-.44-.45.45.45,0,0,1,.44-.45h.13a23.53,23.53,0,0,0,2.58-.15,31.76,31.76,0,0,0,3.15-.52.43.43,0,0,1,.53.34.45.45,0,0,1-.34.53,30.82,30.82,0,0,1-3.24.54A22.88,22.88,0,0,1,23.51,35.77Z"/><path class="cls-2" d="M33.55,28h-.06a3.23,3.23,0,0,1-1.83-1.44,5.5,5.5,0,0,1-1-3.42,8.42,8.42,0,0,0-2-6.13A6.64,6.64,0,0,0,23.94,15a7,7,0,0,0-2.59.36.45.45,0,0,1-.29-.85A8.31,8.31,0,0,1,24,14.06a7.52,7.52,0,0,1,5.35,2.36,9.28,9.28,0,0,1,2.23,6.78,4.7,4.7,0,0,0,.84,2.87,2.48,2.48,0,0,0,1.22,1.06.45.45,0,0,1,.38.51A.44.44,0,0,1,33.55,28Z"/><path class="cls-2" d="M33.6,25.08a.53.53,0,0,1-.24-.06,2,2,0,0,1-.7-1.69c0-.66-.11-2.35-.11-2.37a.45.45,0,0,1,.4-.48.46.46,0,0,1,.49.41c0,.07.14,1.76.11,2.48a1.13,1.13,0,0,0,.28.88.45.45,0,0,1,.15.62A.44.44,0,0,1,33.6,25.08Z"/><path class="cls-2" d="M11.81,19.8a.69.69,0,0,1,0-.24A14.27,14.27,0,1,1,31.62,37.78a.61.61,0,0,1-.83-.25.62.62,0,0,1,.26-.83A13,13,0,1,0,13,20a.62.62,0,0,1-.81.32A.6.6,0,0,1,11.81,19.8Z"/><path class="cls-2" d="M6.66,25.11A18.33,18.33,0,0,1,19.21,7.73a.62.62,0,0,1,.78.39.6.6,0,0,1-.39.77,17.12,17.12,0,0,0-7.2,27.82.63.63,0,0,1,0,.87.62.62,0,0,1-.87,0A18.28,18.28,0,0,1,6.66,25.11Z"/><g class="cls-3"><path class="cls-2" d="M10.73,25.11a.61.61,0,1,1,1.22,0A13.06,13.06,0,0,0,25,38.18a.61.61,0,0,1,.61.62.61.61,0,0,1-.61.61A14.29,14.29,0,0,1,10.73,25.11Z"/></g><g class="cls-3"><path class="cls-2" d="M15.37,40.4a.61.61,0,0,1,.09-.31.61.61,0,0,1,.84-.21A17.21,17.21,0,0,0,25,42.25,17,17,0,0,0,41,31.36a.61.61,0,0,1,.79-.35.62.62,0,0,1,.35.8,18.34,18.34,0,0,1-26.41,9.12A.6.6,0,0,1,15.37,40.4Z"/></g><g class="cls-3"><path class="cls-2" d="M24.42,7.41A.61.61,0,0,1,25,6.8,18.37,18.37,0,0,1,43.34,25.17a.61.61,0,0,1-.62.61.62.62,0,0,1-.61-.62A17.12,17.12,0,0,0,25,8,.62.62,0,0,1,24.42,7.41Z"/></g><g class="cls-3"><path class="cls-2" d="M36.28,3.62a.49.49,0,0,0-.35-.6,46.49,46.49,0,0,0-9.47-1.49l-.56,0,.34,4,.42,0c1.32.08,2.63.22,3.92.42a1.45,1.45,0,0,0,.4.55A1.47,1.47,0,1,0,30.8,4.4a1.43,1.43,0,0,0-.28.53c-1.12-.17-2.24-.3-3.38-.38l-.17-2A45,45,0,0,1,35.68,4,.49.49,0,0,0,36.28,3.62Z"/></g><g class="cls-3"><path class="cls-2" d="M14.76,6a.63.63,0,0,0-.35.82.61.61,0,0,0,.3.33.65.65,0,0,0,.53,0c1.69-.68,3.42-1.28,5.16-1.8a2,2,0,0,0,.68.6,1.91,1.91,0,1,0-.84-2.57,1.86,1.86,0,0,0-.2.75C18.26,4.69,16.49,5.3,14.76,6Z"/></g><g class="cls-3"><path class="cls-2" d="M24.45,45.07a1.72,1.72,0,1,0,1.7,1.84,43,43,0,0,0,10-2.5.49.49,0,0,0,.28-.64.48.48,0,0,0-.63-.28A41.9,41.9,0,0,1,25.93,46,1.7,1.7,0,0,0,24.45,45.07Zm0,2.45a.74.74,0,1,1,.74-.74A.74.74,0,0,1,24.44,47.52Z"/></g></g></g></svg>